<svg xmlns="http://www.w3.org/2000/svg" width="246.593" height="61.418" viewBox="28.345 21.323 246.593 61.418" enable-background="new 28.345 21.323 246.593 61.418"><g><path fill="#004588" d="M28.345 42.64c.09-7.784 6.487-14.127 14.265-14.127 7.78 0 14.18 6.33 14.268 14.11l.004.016v13.237h-7.34V43.22c-.046-3.99-3.155-7.228-6.93-7.228-3.774 0-6.882 3.25-6.928 7.242l-.002 12.643h-7.337V42.64zM166.88 55.828v-.943c-1.143.695-2.19 1.207-3.31 1.207-2.277 0-3.617-2.078-3.617-5.496 0-3.417 1.496-5.606 3.797-5.606 1.07 0 2.258.626 3.312 1.23v-.985h2.52V55.83h-2.703zm0-8.137c-1.095-.378-1.48-.443-2.033-.443-1.36 0-2.056 1.07-2.056 3.284 0 2.26.648 3.308 1.988 3.308.517 0 1.007-.09 2.1-.47V47.69zM213.606 55.828v-.943c-1.14.695-2.188 1.207-3.307 1.207-2.282 0-3.62-2.078-3.62-5.496 0-3.417 1.496-5.606 3.797-5.606 1.074 0 2.254.626 3.308 1.23v-.985h2.522V55.83h-2.7zm0-8.137c-1.096-.378-1.477-.443-2.032-.443-1.365 0-2.058 1.07-2.058 3.284 0 2.26.648 3.308 1.988 3.308.514 0 1.006-.09 2.102-.47V47.69zM154.57 55.848l-5.653-12.087.112 12.088h-2.37V40.946h3.754l5.653 12.176-.112-12.176h2.37v14.902h-3.756zM175.567 56.092c-1.186 0-2.077-.445-2.5-1.252-.27-.535-.36-1.182-.36-2.814v-5.003h-1.783v-1.475l1.783-.268v-2.95h2.705v2.903h2.86v1.788h-2.86v4.513c0 1.743 0 1.81.178 2.102.18.313.517.447 1.052.447.47 0 .916-.068 1.74-.27l.338 1.63c-1.296.45-2.28.65-3.153.65zM181.332 43.403c-.85 0-1.54-.69-1.54-1.542 0-.848.69-1.54 1.54-1.54.85 0 1.52.692 1.52 1.54.002.85-.67 1.543-1.52 1.543zm-1.363 12.445V45.234h2.704v10.614h-2.705zM189.554 56.05c-3.218 0-5.093-2.013-5.093-5.5 0-3.44 1.9-5.56 5.094-5.56 3.264 0 5.092 1.985 5.092 5.54 0 3.53-1.855 5.52-5.092 5.52zm0-9.14c-1.54 0-2.255 1.14-2.255 3.574 0 2.613.69 3.664 2.276 3.664 1.563 0 2.23-1.05 2.23-3.598.004-2.568-.644-3.64-2.252-3.64zM202.563 55.848v-6.435c0-1.363-.113-2.167-1.478-2.167-.666 0-1.476.134-2.32.424v8.178h-2.702V45.234h2.522v.94c1.565-.828 2.75-1.187 3.82-1.187 1.07 0 1.922.425 2.366 1.14.405.626.493 1.185.493 2.883v6.837h-2.7zM221.133 39.984v15.864h-2.7V39.984"/><path fill="#004588" d="M225.365 50.953v.313c0 1.92.803 2.726 2.346 2.726.915 0 1.83-.136 3.505-.67l.472 1.54c-2.188.94-3.416 1.23-4.69 1.23-2.657 0-4.444-1.923-4.444-5.274 0-3.438 1.74-5.83 4.803-5.83 2.994 0 4.513 1.743 4.513 5.518v.447h-6.505zm2.19-4.2c-1.272 0-1.97.96-2.147 2.77l4-.2c-.068-1.742-.627-2.57-1.854-2.57z"/><g fill="#B1B3B4"><path d="M90.62 55.215c-.915.447-1.786.58-3.908.58H83.34V40.893h2.77c2.523 0 3.396.09 4.266.47 1.207.515 1.855 1.632 1.855 3.105 0 2.01-.87 3.016-2.95 3.418 2.37.27 3.487 1.476 3.487 3.774 0 1.61-.76 2.883-2.146 3.555zm-1.116-12.58c-.604-.356-.983-.4-2.815-.4h-1.564v5.07h1.096c3.238 0 4.222-.626 4.222-2.703 0-.894-.336-1.587-.94-1.966zm.134 6.368c-.514-.27-1.162-.358-2.48-.358h-2.032v5.81h1.096c1.876 0 2.523-.092 3.193-.4.894-.427 1.43-1.41 1.43-2.616 0-1.14-.447-2.034-1.207-2.437zM111.54 55.795v-6.457c0-1.563.087-2.793-1.767-2.793-.894 0-1.988.2-3.082.604v8.645h-1.65V45.272h1.606v.85c1.52-.714 2.702-1.095 3.642-1.095 1.072 0 1.877.357 2.367 1.027.448.604.536 1.096.536 2.748v6.993h-1.65zM252.517 55.795V54.69c-1.273.738-2.547 1.188-3.507 1.188-2.28 0-3.598-2.06-3.598-5.476 0-3.308 1.563-5.542 3.842-5.542 1.14 0 2.3.625 3.308 1.162v-.75h1.606v10.522h-1.65zm0-8.7c-1.588-.58-2.076-.716-2.836-.716-1.59 0-2.48 1.36-2.48 3.887 0 2.838.784 4.11 2.37 4.11.688 0 1.406-.157 2.947-.76v-6.523zM101.468 55.795V54.69c-1.273.738-2.547 1.188-3.507 1.188-2.277 0-3.597-2.06-3.597-5.476 0-3.308 1.564-5.542 3.843-5.542 1.14 0 2.302.625 3.307 1.162v-.754h1.608v10.526h-1.652zm0-8.7c-1.586-.58-2.077-.716-2.836-.716-1.587 0-2.48 1.36-2.48 3.887 0 2.838.78 4.11 2.367 4.11.692 0 1.407-.157 2.948-.76v-6.523zM241.744 55.215c-.916.447-1.787.58-3.91.58h-3.373V40.893h2.772c2.523 0 3.396.09 4.267.47 1.204.515 1.853 1.632 1.853 3.105 0 2.01-.873 3.016-2.95 3.418 2.368.27 3.49 1.476 3.49 3.774 0 1.61-.766 2.883-2.15 3.555zm-1.117-12.58c-.604-.356-.983-.4-2.813-.4h-1.564v5.07h1.092c3.242 0 4.225-.626 4.225-2.703-.004-.894-.338-1.587-.94-1.966zm.136 6.368c-.517-.27-1.164-.358-2.482-.358h-2.03v5.81h1.092c1.88 0 2.525-.092 3.197-.4.894-.427 1.427-1.41 1.427-2.616-.002-1.14-.446-2.034-1.204-2.437zM262.662 55.795v-6.457c0-1.563.086-2.793-1.767-2.793-.895 0-1.99.2-3.084.604v8.645h-1.65V45.272h1.608v.85c1.52-.714 2.7-1.095 3.64-1.095 1.073 0 1.877.357 2.37 1.027.445.604.533 1.096.533 2.748v6.993h-1.648zM122.15 60.264v-5.408c-1.273.74-2.547 1.187-3.508 1.187-2.278 0-3.596-2.056-3.596-5.476 0-3.306 1.563-5.54 3.84-5.54 1.14 0 2.303.625 3.308 1.162v-.918h1.61v14.992h-1.655zm0-13.004c-1.586-.58-2.078-.715-2.837-.715-1.587 0-2.48 1.363-2.48 3.888 0 2.836.782 4.11 2.367 4.11.694 0 1.408-.157 2.95-.76V47.26zM132.5 55.795v-.85c-1.52.717-2.703 1.096-3.643 1.096-1.07 0-1.875-.356-2.367-1.028-.446-.602-.536-1.094-.536-2.746v-6.994h1.653v6.457c0 1.563-.09 2.792 1.765 2.792.893 0 1.988-.2 3.083-.604v-8.646h1.653v10.523H132.5zM137.512 50.678v.38c0 2.323.98 3.464 2.747 3.464 1.004 0 1.876-.2 3.617-.782l.314 1.028c-2.188 1.006-3.104 1.273-4.356 1.273-2.502 0-4.11-1.942-4.11-5.093 0-3.665 1.698-5.92 4.49-5.92 2.658 0 4.043 1.697 4.043 5.092v.558h-6.745zm2.88-4.333c-1.586 0-2.612 1.116-2.79 3.24l4.958-.182c0-2.12-.714-3.058-2.167-3.058zM272.838 55.795l-4.848-5.36v5.36h-1.654V39.932h1.654v9.94l4.713-4.602h1.942l-4.98 4.78 5.273 5.743-2.1.002z"/></g><path d="M149.917 65.045c-.472.3-.864.37-1.97.37h-1.3V59.7h1.53c1.03 0 1.55.138 1.988.523.548.488.855 1.3.855 2.328.002 1.16-.39 2.042-1.103 2.495zm-.358-4.272c-.328-.336-.688-.43-1.553-.43h-.47v4.41h.316c.94 0 1.32-.086 1.644-.396.37-.342.583-.975.583-1.807 0-.835-.17-1.427-.52-1.777zM151.92 65.414V59.7h3.46v.644h-2.568v1.764h2.492v.636h-2.492v2.028h2.604v.644l-3.496-.002zM161.008 65.217c-.342.146-.65.197-1.56.197h-1.352V59.7h1.275c.96 0 1.284.035 1.618.18.463.198.703.626.703 1.2 0 .77-.343 1.164-1.128 1.31.89.095 1.324.56 1.324 1.43.004.65-.312 1.15-.878 1.397zm-.506-4.737c-.203-.127-.375-.137-.983-.137h-.55V62.1h.403c1.112 0 1.446-.215 1.446-.934 0-.31-.103-.557-.318-.686zm.035 2.374c-.188-.094-.41-.13-.908-.13h-.66v2.048h.403c.625 0 .88-.035 1.112-.146.308-.146.48-.48.48-.906 0-.413-.16-.73-.428-.866zM162.744 65.414V59.7h3.46v.644h-2.566v1.764h2.49v.636h-2.49v2.028h2.602v.644l-3.496-.002zM166.994 65.414V59.7h.89v5.07h2.526v.644h-3.416zM172.543 65.516c-1.424 0-2.254-1.06-2.254-2.945 0-1.908.872-2.953 2.42-2.953.464 0 1.005.086 1.772.315l-.133.627c-.655-.147-1.183-.224-1.554-.224-1.06 0-1.564.72-1.564 2.21 0 .76.146 1.386.408 1.763.252.34.566.495 1.07.495.38 0 .783-.076 1.098-.17v-1.918h.85v2.303c-.89.36-1.525.496-2.115.496zM175.59 65.414V59.7h.89v5.714h-.89zM180.88 66.88c-.855 0-1.583-.43-1.583-1.272v-.137c-1.182-.18-1.918-1.128-1.918-2.9 0-1.894.883-2.945 2.44-2.945 1.553 0 2.415 1.06 2.415 2.953 0 1.823-.81 2.825-2.143 2.922 0 .547.164.684.72.684m-.984-5.873c-.992 0-1.51.764-1.51 2.26 0 .737.147 1.415.397 1.766.226.326.625.506 1.104.506.993 0 1.473-.73 1.473-2.262 0-1.517-.47-2.27-1.465-2.27zM186.856 64.977c-.364.353-.946.54-1.676.54-.795 0-1.48-.292-1.81-.763-.247-.36-.29-.644-.29-1.695v-3.357h.89v3.674c0 .934.315 1.438 1.313 1.438.584 0 .985-.188 1.166-.557.107-.215.145-.496.145-1.055V59.7h.762v3.384c-.003 1.182-.086 1.516-.5 1.893zM188.46 65.414V59.7h3.46v.644h-2.57v1.764h2.494v.636h-2.493v2.028h2.605v.644l-3.496-.002zM237.244 65.414h-1.02l-1.987-5.713h.96l1.602 4.96 1.583-4.96h.832l-1.97 5.714zM242.785 65.414l-.51-1.447h-2.353l-.496 1.447h-.807l2.01-5.713h1.02l2.073 5.714h-.938zm-1.707-4.984l-.95 2.912h1.928l-.978-2.912zM247.33 65.414l-2.363-4.822.027 4.822h-.746V59.7h1.217l2.363 4.863-.024-4.862h.74v5.714h-1.214zM254.54 65.217c-.344.146-.648.197-1.56.197h-1.353V59.7h1.277c.96 0 1.283.035 1.617.18.464.198.702.626.702 1.2 0 .77-.343 1.164-1.132 1.31.894.095 1.33.56 1.33 1.43.004.65-.314 1.15-.88 1.397zm-.505-4.737c-.203-.127-.377-.137-.984-.137h-.548V62.1h.404c1.112 0 1.446-.215 1.446-.934.002-.31-.102-.557-.317-.686zm.034 2.374c-.19-.094-.412-.13-.908-.13h-.66v2.048h.404c.622 0 .88-.035 1.112-.146.308-.146.48-.48.48-.906 0-.413-.162-.73-.43-.866zM256.276 65.414V59.7h3.46v.644h-2.566v1.764h2.492v.636h-2.492v2.028h2.604v.644l-3.498-.002zM260.526 65.414V59.7h.89v5.07h2.528v.644h-3.418zM266.074 65.516c-1.423 0-2.253-1.06-2.253-2.945 0-1.908.874-2.953 2.426-2.953.46 0 1.002.086 1.772.315l-.14.627c-.65-.147-1.18-.224-1.55-.224-1.06 0-1.568.72-1.568 2.21 0 .76.15 1.386.412 1.763.252.34.566.495 1.072.495.377 0 .78-.076 1.096-.17v-1.918h.848v2.303c-.89.36-1.522.496-2.114.496zM269.123 65.414V59.7h.89v5.714h-.89zM271.168 65.414V59.7h3.46v.644h-2.566v1.764h2.49v.636h-2.49v2.028h2.602v.644l-3.496-.002zm.886-6.348c-.238 0-.44-.194-.44-.436s.202-.428.44-.428c.237 0 .426.188.426.428s-.19.436-.426.436zm1.597 0c-.236 0-.437-.194-.437-.436s.2-.428.438-.428c.24 0 .428.188.428.428s-.184.436-.427.436z"/><path fill="#B1B3B4" d="M77.875 39.14c-.108-9.827-8.19-17.82-18.016-17.817h-.005c-5.186 0-9.883 2.232-13.18 5.786 3.28.856 6.165 2.725 8.298 5.248 1.4-1.004 3.082-1.592 4.886-1.592 4.773 0 8.697 4.09 8.75 9.132v15.98h9.27V39.162l-.005-.024z"/><g fill="#B1B3B4"><path d="M83.67 72.328h4.023v.996H84.7v2.31h2.727v.995H84.7v2.603h2.994v.996H83.67v-7.902zM93.888 80.23h-.936v-.917h-.02c-.29.656-.99 1.054-1.72 1.054-1.358 0-1.966-.93-1.966-2.48v-3.43h.97v2.987c0 1.35.265 2.005 1.11 2.062 1.1 0 1.595-.976 1.595-2.375v-2.673h.968v5.772zM95.535 74.455h.905v.895h.02c.26-.598.814-1.03 1.37-1.03.29 0 .433.034.638.08v.95c-.174-.078-.37-.102-.535-.102-.864 0-1.43.905-1.43 2.354v2.627h-.968v-5.775zM101.863 74.318c1.596 0 2.665 1.27 2.665 3.023 0 1.655-1.09 3.024-2.665 3.024-1.584 0-2.675-1.37-2.675-3.023 0-1.752 1.07-3.022 2.675-3.022zm0 5.186c1.132 0 1.637-1.13 1.637-2.162 0-1.098-.607-2.162-1.637-2.162-1.038 0-1.646 1.064-1.646 2.162 0 1.03.503 2.162 1.646 2.162zM105.432 79.096c.382.27.928.408 1.206.408.44 0 .987-.205.987-.826 0-1.053-2.274-.96-2.274-2.58 0-1.2.814-1.78 1.853-1.78.454 0 .824.105 1.205.23l-.083.928c-.215-.146-.79-.295-1.02-.295-.492 0-.925.23-.925.702 0 1.18 2.275.84 2.275 2.684 0 1.234-.897 1.802-1.833 1.802-.493 0-.998-.06-1.44-.318l.05-.954zM109.437 81.79c.123.046.288.09.453.09.863 0 1.15-1.312 1.15-1.425 0-.125-.122-.418-.184-.61l-1.78-5.39h1.06l1.41 4.776h.02l1.44-4.775h.98l-1.936 5.897c-.36 1.11-.74 2.388-2.017 2.388-.31 0-.483-.046-.66-.078l.064-.87zM114.582 79.096c.38.27.926.408 1.204.408.442 0 .987-.205.987-.826 0-1.053-2.275-.96-2.275-2.58 0-1.2.813-1.78 1.854-1.78.453 0 .824.105 1.205.23l-.083.928c-.217-.146-.793-.295-1.02-.295-.494 0-.926.23-.926.702 0 1.18 2.274.84 2.274 2.684 0 1.234-.895 1.802-1.833 1.802-.493 0-.998-.06-1.44-.318l.052-.954zM121.764 75.316h-1.39v3.158c0 .666.37 1.03.813 1.03.298 0 .514-.104.657-.206v.908c-.215.067-.514.158-.822.158-.998 0-1.615-.52-1.615-1.68v-3.37h-1.185v-.86h1.185v-1.336l.967-.34v1.676h1.39v.862zM127 79.99c-.37.147-.792.375-1.657.375-1.86 0-2.715-1.246-2.715-3.125 0-1.712.98-2.923 2.46-2.923 1.748 0 2.315 1.404 2.315 3.263h-3.747c0 1.143.813 1.924 1.73 1.924.636 0 1.378-.363 1.614-.576v1.062zm-.626-3.2c0-.887-.474-1.61-1.308-1.61-.946 0-1.337.86-1.41 1.61h2.718zM128.688 74.455h.906v.838h.02c.37-.668.897-.976 1.668-.976.608 0 1.215.34 1.49 1.123.362-.825 1.153-1.123 1.628-1.123 1.337 0 1.82.953 1.82 2.21v3.7h-.967V76.79c0-.716-.155-1.61-.936-1.61-.988 0-1.38 1.064-1.38 2.14v2.91h-.967v-3.44c0-.715-.153-1.61-.936-1.61-.988 0-1.38 1.065-1.38 2.142v2.908h-.968v-5.774h.002z"/></g></g><path fill="none" d="M0 .166h303.01v98.23H0z"/></svg>